<svg width="18" height="18" viewBox="0 0 18 18" fill="none" xmlns="http://www.w3.org/2000/svg">
<circle cx="9" cy="9" r="9" fill="#FFE588"/>
<path d="M8.79 13.14C10.27 13.14 11.54 12.36 11.54 10.97C11.54 10.01 10.93 9.41 10.1 9.16V9.11C10.9 8.79 11.3 8.21 11.3 7.47C11.3 6.14 10.29 5.42 8.75 5.42C7.87 5.42 7.13 5.76 6.44 6.34L7.34 7.43C7.79 7.04 8.17 6.81 8.67 6.81C9.22 6.81 9.52 7.09 9.52 7.6C9.52 8.19 9.12 8.58 7.85 8.58V9.83C9.41 9.83 9.75 10.21 9.75 10.85C9.75 11.41 9.3 11.7 8.61 11.7C8.03 11.7 7.51 11.41 7.06 10.98L6.24 12.1C6.78 12.73 7.61 13.14 8.79 13.14Z" fill="#796BD3"/>
</svg>
