<svg width="120" height="49" viewBox="0 0 120 49" fill="none" xmlns="http://www.w3.org/2000/svg">
<rect width="120" height="45" transform="translate(0 2)" fill="white"/>
<rect width="120" height="49" rx="24.5" fill="#796BD3"/>
<path d="M39.5652 26.96C39.4372 27.184 39.2878 27.3333 39.1172 27.408C38.9572 27.4827 38.7918 27.52 38.6212 27.52C38.4612 27.5093 38.3065 27.4773 38.1572 27.424C38.0185 27.36 37.9118 27.3013 37.8372 27.248C37.2932 26.9173 36.7918 26.5173 36.3332 26.048C35.8745 25.5787 35.4745 25.04 35.1332 24.432C34.7812 25.0507 34.3545 25.6107 33.8532 26.112C33.3625 26.6133 32.8452 27.04 32.3012 27.392C32.2265 27.4453 32.1198 27.504 31.9812 27.568C31.8425 27.632 31.6932 27.6693 31.5332 27.68C31.3732 27.6907 31.2078 27.664 31.0372 27.6C30.8665 27.5253 30.7118 27.3813 30.5732 27.168C30.4558 26.9973 30.3918 26.8373 30.3812 26.688C30.3812 26.528 30.4078 26.3893 30.4612 26.272C30.5252 26.1547 30.5998 26.0533 30.6852 25.968C30.7812 25.8827 30.8612 25.8187 30.9252 25.776C31.8638 25.168 32.5785 24.4747 33.0692 23.696C33.5598 22.9173 33.8265 22.0267 33.8692 21.024H31.9652C31.6452 21.024 31.3892 20.928 31.1972 20.736C31.0158 20.544 30.9252 20.2987 30.9252 20C30.9252 19.7227 31.0158 19.488 31.1972 19.296C31.3892 19.104 31.6452 19.008 31.9652 19.008H38.3172C38.6372 19.008 38.8878 19.104 39.0692 19.296C39.2612 19.488 39.3572 19.7227 39.3572 20C39.3572 20.2987 39.2612 20.544 39.0692 20.736C38.8878 20.928 38.6372 21.024 38.3172 21.024H36.3972C36.4398 22.0267 36.6798 22.8907 37.1172 23.616C37.5652 24.3307 38.2318 24.9707 39.1172 25.536C39.1918 25.5893 39.2718 25.664 39.3572 25.76C39.4532 25.8453 39.5332 25.9467 39.5972 26.064C39.6612 26.1813 39.6932 26.32 39.6932 26.48C39.7038 26.6293 39.6612 26.7893 39.5652 26.96ZM43.6132 29.344C43.6132 29.728 43.4852 30.0267 43.2292 30.24C42.9838 30.464 42.6958 30.576 42.3652 30.576C42.0238 30.576 41.7305 30.464 41.4852 30.24C41.2505 30.0267 41.1332 29.728 41.1332 29.344V24.064H39.5012C39.1918 24.064 38.9465 23.968 38.7652 23.776C38.5838 23.584 38.4932 23.344 38.4932 23.056C38.4932 22.7893 38.5838 22.5547 38.7652 22.352C38.9465 22.1493 39.1918 22.048 39.5012 22.048H41.1332V16.864C41.1332 16.48 41.2505 16.176 41.4852 15.952C41.7305 15.728 42.0238 15.616 42.3652 15.616C42.6958 15.616 42.9838 15.728 43.2292 15.952C43.4852 16.176 43.6132 16.48 43.6132 16.864V29.344ZM33.4372 18.32C33.1278 18.32 32.8825 18.2293 32.7012 18.048C32.5305 17.856 32.4452 17.6213 32.4452 17.344C32.4452 17.0667 32.5305 16.8373 32.7012 16.656C32.8825 16.4747 33.1278 16.384 33.4372 16.384H36.8452C37.1545 16.384 37.3945 16.4747 37.5652 16.656C37.7465 16.8373 37.8372 17.0667 37.8372 17.344C37.8372 17.6213 37.7465 17.856 37.5652 18.048C37.3945 18.2293 37.1545 18.32 36.8452 18.32H33.4372ZM46.564 24.384C46.244 24.384 45.988 24.2933 45.796 24.112C45.6147 23.92 45.524 23.6747 45.524 23.376C45.524 23.0987 45.6147 22.864 45.796 22.672C45.988 22.48 46.244 22.384 46.564 22.384H58.5C58.82 22.384 59.0707 22.48 59.252 22.672C59.444 22.864 59.54 23.0987 59.54 23.376C59.54 23.6747 59.444 23.92 59.252 24.112C59.0707 24.2933 58.82 24.384 58.5 24.384H46.564ZM57.764 29.168C57.764 29.616 57.6467 29.9627 57.412 30.208C57.188 30.4533 56.82 30.576 56.308 30.576H48.82C48.308 30.576 47.9347 30.4533 47.7 30.208C47.476 29.9627 47.364 29.616 47.364 29.168V26.56C47.364 26.112 47.476 25.7653 47.7 25.52C47.9347 25.2747 48.308 25.152 48.82 25.152H56.308C56.82 25.152 57.188 25.2747 57.412 25.52C57.6467 25.7653 57.764 26.112 57.764 26.56V29.168ZM49.86 28.016C49.86 28.24 49.8974 28.3893 49.972 28.464C50.0467 28.5493 50.1907 28.592 50.404 28.592H54.724C54.9374 28.592 55.0814 28.5493 55.156 28.464C55.2307 28.3893 55.268 28.24 55.268 28.016V27.728C55.268 27.504 55.2307 27.3547 55.156 27.28C55.0814 27.1947 54.9374 27.152 54.724 27.152H50.404C50.1907 27.152 50.0467 27.1947 49.972 27.28C49.8974 27.3547 49.86 27.504 49.86 27.728V28.016ZM57.988 18.752C57.988 19.648 57.5347 20.368 56.628 20.912C55.732 21.4453 54.3774 21.712 52.564 21.712C50.7614 21.712 49.4014 21.4453 48.484 20.912C47.5774 20.368 47.124 19.648 47.124 18.752C47.124 17.856 47.5774 17.1413 48.484 16.608C49.4014 16.064 50.7614 15.792 52.564 15.792C54.3774 15.792 55.732 16.064 56.628 16.608C57.5347 17.1413 57.988 17.856 57.988 18.752ZM52.564 17.744C51.5294 17.744 50.7774 17.824 50.308 17.984C49.8494 18.144 49.62 18.4 49.62 18.752C49.62 19.0933 49.8494 19.3493 50.308 19.52C50.7774 19.68 51.5294 19.76 52.564 19.76C53.588 19.76 54.3294 19.68 54.788 19.52C55.2574 19.3493 55.492 19.0933 55.492 18.752C55.492 18.4 55.2574 18.144 54.788 17.984C54.3294 17.824 53.588 17.744 52.564 17.744ZM61.6109 28.896C61.2909 28.896 61.0349 28.8 60.8429 28.608C60.6616 28.4267 60.5709 28.1867 60.5709 27.888C60.5709 27.6107 60.6616 27.376 60.8429 27.184C61.0349 26.992 61.2909 26.896 61.6109 26.896H73.5469C73.8669 26.896 74.1176 26.992 74.2989 27.184C74.4909 27.376 74.5869 27.6107 74.5869 27.888C74.5869 28.1867 74.4909 28.4267 74.2989 28.608C74.1176 28.8 73.8669 28.896 73.5469 28.896H61.6109ZM73.0349 20.448C73.0349 20.992 72.9176 21.504 72.6829 21.984C72.4589 22.464 72.1176 22.8853 71.6589 23.248C71.2109 23.6 70.6456 23.8827 69.9629 24.096C69.2909 24.2987 68.5069 24.4 67.6109 24.4C66.7256 24.4 65.9416 24.2987 65.2589 24.096C64.5869 23.8827 64.0216 23.6 63.5629 23.248C63.1042 22.8853 62.7576 22.464 62.5229 21.984C62.2882 21.504 62.1709 20.992 62.1709 20.448C62.1709 19.904 62.2882 19.392 62.5229 18.912C62.7576 18.432 63.1042 18.016 63.5629 17.664C64.0216 17.3013 64.5869 17.0187 65.2589 16.816C65.9416 16.6027 66.7256 16.496 67.6109 16.496C68.5069 16.496 69.2909 16.6027 69.9629 16.816C70.6456 17.0187 71.2109 17.3013 71.6589 17.664C72.1176 18.016 72.4589 18.432 72.6829 18.912C72.9176 19.392 73.0349 19.904 73.0349 20.448ZM67.6109 18.448C66.6082 18.448 65.8669 18.6293 65.3869 18.992C64.9069 19.344 64.6669 19.8293 64.6669 20.448C64.6669 21.0667 64.9069 21.5573 65.3869 21.92C65.8669 22.272 66.6082 22.448 67.6109 22.448C68.6136 22.448 69.3496 22.272 69.8189 21.92C70.2989 21.5573 70.5389 21.0667 70.5389 20.448C70.5389 19.8293 70.2989 19.344 69.8189 18.992C69.3496 18.6293 68.6136 18.448 67.6109 18.448ZM87.1058 23.104C87.4151 23.104 87.6604 23.2 87.8418 23.392C88.0338 23.584 88.1298 23.8187 88.1298 24.096C88.1298 24.3627 88.0338 24.592 87.8418 24.784C87.6604 24.976 87.4151 25.072 87.1058 25.072H83.9058V26.896H88.5938C88.9138 26.896 89.1644 26.992 89.3458 27.184C89.5378 27.376 89.6338 27.6107 89.6338 27.888C89.6338 28.1867 89.5378 28.4267 89.3458 28.608C89.1644 28.8 88.9138 28.896 88.5938 28.896H76.6578C76.3378 28.896 76.0818 28.8 75.8898 28.608C75.7084 28.4267 75.6178 28.1867 75.6178 27.888C75.6178 27.6107 75.7084 27.376 75.8898 27.184C76.0818 26.992 76.3378 26.896 76.6578 26.896H81.4098V25.072H79.3298C78.6898 25.072 78.2311 24.9227 77.9538 24.624C77.6764 24.3147 77.5378 23.8827 77.5378 23.328V21.632C77.5378 21.088 77.6764 20.6613 77.9538 20.352C78.2311 20.0427 78.6898 19.888 79.3298 19.888H84.9618C85.0791 19.888 85.1644 19.8667 85.2178 19.824C85.2711 19.7813 85.2978 19.6907 85.2978 19.552V18.992C85.2978 18.8747 85.2658 18.8 85.2018 18.768C85.1378 18.7253 85.0578 18.704 84.9618 18.704H78.5458C78.2364 18.704 77.9911 18.608 77.8098 18.416C77.6284 18.224 77.5378 17.9893 77.5378 17.712C77.5378 17.4453 77.6284 17.216 77.8098 17.024C77.9911 16.832 78.2364 16.736 78.5458 16.736H85.9858C86.6258 16.736 87.0844 16.8907 87.3618 17.2C87.6391 17.4987 87.7778 17.9253 87.7778 18.48V20.112C87.7778 20.656 87.6391 21.0827 87.3618 21.392C87.0844 21.7013 86.6258 21.856 85.9858 21.856H80.3698C80.2524 21.856 80.1671 21.8773 80.1138 21.92C80.0604 21.9627 80.0338 22.0533 80.0338 22.192V22.816C80.0338 22.9333 80.0658 23.0133 80.1298 23.056C80.1938 23.088 80.2738 23.104 80.3698 23.104H87.1058Z" fill="white"/>
</svg>
