<svg width="120" height="49" viewBox="0 0 120 49" fill="none" xmlns="http://www.w3.org/2000/svg">
<rect x="0.5" y="0.5" width="119" height="48" rx="24" fill="white" stroke="#796BD3"/>
<path d="M87.9157 23.7683L104.542 23.7683" stroke="#796BD3" stroke-width="2" stroke-linecap="round" stroke-linejoin="round"/>
<path d="M99.4819 18.6876L104.542 23.7683L99.4819 28.8489" stroke="#796BD3" stroke-width="2" stroke-linecap="round" stroke-linejoin="round"/>
<path d="M20.9768 23.952C20.9768 24.2933 21.0461 24.5493 21.1848 24.72C21.3235 24.8907 21.5955 24.9707 22.0008 24.96C22.6088 24.9173 23.2168 24.864 23.8248 24.8C24.4328 24.736 25.0568 24.64 25.6968 24.512C25.7821 24.5013 25.8835 24.4907 26.0008 24.48C26.1288 24.4587 26.2515 24.464 26.3688 24.496C26.4968 24.528 26.6141 24.5973 26.7208 24.704C26.8275 24.8107 26.9075 24.976 26.9608 25.2C27.0035 25.424 26.9981 25.6107 26.9448 25.76C26.8915 25.9093 26.8168 26.032 26.7208 26.128C26.6248 26.2133 26.5181 26.2827 26.4008 26.336C26.2835 26.3787 26.1821 26.4053 26.0968 26.416C25.1368 26.6187 24.2088 26.7627 23.3128 26.848C22.4168 26.9333 21.5848 26.9867 20.8168 27.008C20.4115 27.0293 20.0595 26.9813 19.7608 26.864C19.4728 26.736 19.2328 26.5653 19.0408 26.352C18.8488 26.128 18.7048 25.8667 18.6088 25.568C18.5235 25.2587 18.4808 24.928 18.4808 24.576V18.96C18.4808 18.384 18.6248 17.9467 18.9128 17.648C19.2008 17.3387 19.6648 17.184 20.3048 17.184H25.2008C25.5101 17.184 25.7555 17.2853 25.9368 17.488C26.1288 17.68 26.2248 17.9147 26.2248 18.192C26.2248 18.48 26.1288 18.72 25.9368 18.912C25.7555 19.104 25.5101 19.2 25.2008 19.2H21.6168C21.3928 19.2 21.2275 19.2267 21.1208 19.28C21.0248 19.3333 20.9768 19.4773 20.9768 19.712V23.952ZM30.1768 29.344C30.1768 29.728 30.0488 30.0267 29.7928 30.24C29.5475 30.464 29.2595 30.576 28.9288 30.576C28.5875 30.576 28.2941 30.464 28.0488 30.24C27.8141 30.0267 27.6968 29.728 27.6968 29.344V16.864C27.6968 16.48 27.8141 16.176 28.0488 15.952C28.2941 15.728 28.5875 15.616 28.9288 15.616C29.2595 15.616 29.5475 15.728 29.7928 15.952C30.0488 16.176 30.1768 16.48 30.1768 16.864V20.992H31.2808C31.5901 20.992 31.8355 21.0933 32.0168 21.296C32.1981 21.4987 32.2888 21.7333 32.2888 22C32.2888 22.288 32.1981 22.528 32.0168 22.72C31.8355 22.912 31.5901 23.008 31.2808 23.008H30.1768V29.344ZM33.9277 24.384C33.6077 24.384 33.3517 24.2933 33.1597 24.112C32.9783 23.92 32.8877 23.6747 32.8877 23.376C32.8877 23.0987 32.9783 22.864 33.1597 22.672C33.3517 22.48 33.6077 22.384 33.9277 22.384H45.8637C46.1837 22.384 46.4343 22.48 46.6157 22.672C46.8077 22.864 46.9037 23.0987 46.9037 23.376C46.9037 23.6747 46.8077 23.92 46.6157 24.112C46.4343 24.2933 46.1837 24.384 45.8637 24.384H33.9277ZM45.1277 29.168C45.1277 29.616 45.0103 29.9627 44.7757 30.208C44.5517 30.4533 44.1837 30.576 43.6717 30.576H36.1837C35.6717 30.576 35.2983 30.4533 35.0637 30.208C34.8397 29.9627 34.7277 29.616 34.7277 29.168V26.56C34.7277 26.112 34.8397 25.7653 35.0637 25.52C35.2983 25.2747 35.6717 25.152 36.1837 25.152H43.6717C44.1837 25.152 44.5517 25.2747 44.7757 25.52C45.0103 25.7653 45.1277 26.112 45.1277 26.56V29.168ZM37.2237 28.016C37.2237 28.24 37.261 28.3893 37.3357 28.464C37.4103 28.5493 37.5543 28.592 37.7677 28.592H42.0877C42.301 28.592 42.445 28.5493 42.5197 28.464C42.5943 28.3893 42.6317 28.24 42.6317 28.016V27.728C42.6317 27.504 42.5943 27.3547 42.5197 27.28C42.445 27.1947 42.301 27.152 42.0877 27.152H37.7677C37.5543 27.152 37.4103 27.1947 37.3357 27.28C37.261 27.3547 37.2237 27.504 37.2237 27.728V28.016ZM45.3517 18.752C45.3517 19.648 44.8983 20.368 43.9917 20.912C43.0957 21.4453 41.741 21.712 39.9277 21.712C38.125 21.712 36.765 21.4453 35.8477 20.912C34.941 20.368 34.4877 19.648 34.4877 18.752C34.4877 17.856 34.941 17.1413 35.8477 16.608C36.765 16.064 38.125 15.792 39.9277 15.792C41.741 15.792 43.0957 16.064 43.9917 16.608C44.8983 17.1413 45.3517 17.856 45.3517 18.752ZM39.9277 17.744C38.893 17.744 38.141 17.824 37.6717 17.984C37.213 18.144 36.9837 18.4 36.9837 18.752C36.9837 19.0933 37.213 19.3493 37.6717 19.52C38.141 19.68 38.893 19.76 39.9277 19.76C40.9517 19.76 41.693 19.68 42.1517 19.52C42.621 19.3493 42.8557 19.0933 42.8557 18.752C42.8557 18.4 42.621 18.144 42.1517 17.984C41.693 17.824 40.9517 17.744 39.9277 17.744ZM48.9746 28.896C48.6546 28.896 48.3986 28.8 48.2066 28.608C48.0252 28.4267 47.9346 28.1867 47.9346 27.888C47.9346 27.6107 48.0252 27.376 48.2066 27.184C48.3986 26.992 48.6546 26.896 48.9746 26.896H60.9106C61.2306 26.896 61.4812 26.992 61.6626 27.184C61.8546 27.376 61.9506 27.6107 61.9506 27.888C61.9506 28.1867 61.8546 28.4267 61.6626 28.608C61.4812 28.8 61.2306 28.896 60.9106 28.896H48.9746ZM60.3986 20.448C60.3986 20.992 60.2812 21.504 60.0466 21.984C59.8226 22.464 59.4812 22.8853 59.0226 23.248C58.5746 23.6 58.0092 23.8827 57.3266 24.096C56.6546 24.2987 55.8706 24.4 54.9746 24.4C54.0892 24.4 53.3052 24.2987 52.6226 24.096C51.9506 23.8827 51.3852 23.6 50.9266 23.248C50.4679 22.8853 50.1212 22.464 49.8866 21.984C49.6519 21.504 49.5346 20.992 49.5346 20.448C49.5346 19.904 49.6519 19.392 49.8866 18.912C50.1212 18.432 50.4679 18.016 50.9266 17.664C51.3852 17.3013 51.9506 17.0187 52.6226 16.816C53.3052 16.6027 54.0892 16.496 54.9746 16.496C55.8706 16.496 56.6546 16.6027 57.3266 16.816C58.0092 17.0187 58.5746 17.3013 59.0226 17.664C59.4812 18.016 59.8226 18.432 60.0466 18.912C60.2812 19.392 60.3986 19.904 60.3986 20.448ZM54.9746 18.448C53.9719 18.448 53.2306 18.6293 52.7506 18.992C52.2706 19.344 52.0306 19.8293 52.0306 20.448C52.0306 21.0667 52.2706 21.5573 52.7506 21.92C53.2306 22.272 53.9719 22.448 54.9746 22.448C55.9772 22.448 56.7132 22.272 57.1826 21.92C57.6626 21.5573 57.9026 21.0667 57.9026 20.448C57.9026 19.8293 57.6626 19.344 57.1826 18.992C56.7132 18.6293 55.9772 18.448 54.9746 18.448ZM74.4694 23.104C74.7788 23.104 75.0241 23.2 75.2054 23.392C75.3974 23.584 75.4934 23.8187 75.4934 24.096C75.4934 24.3627 75.3974 24.592 75.2054 24.784C75.0241 24.976 74.7788 25.072 74.4694 25.072H71.2694V26.896H75.9574C76.2774 26.896 76.5281 26.992 76.7094 27.184C76.9014 27.376 76.9974 27.6107 76.9974 27.888C76.9974 28.1867 76.9014 28.4267 76.7094 28.608C76.5281 28.8 76.2774 28.896 75.9574 28.896H64.0214C63.7014 28.896 63.4454 28.8 63.2534 28.608C63.0721 28.4267 62.9814 28.1867 62.9814 27.888C62.9814 27.6107 63.0721 27.376 63.2534 27.184C63.4454 26.992 63.7014 26.896 64.0214 26.896H68.7734V25.072H66.6934C66.0534 25.072 65.5948 24.9227 65.3174 24.624C65.0401 24.3147 64.9014 23.8827 64.9014 23.328V21.632C64.9014 21.088 65.0401 20.6613 65.3174 20.352C65.5948 20.0427 66.0534 19.888 66.6934 19.888H72.3254C72.4428 19.888 72.5281 19.8667 72.5814 19.824C72.6348 19.7813 72.6614 19.6907 72.6614 19.552V18.992C72.6614 18.8747 72.6294 18.8 72.5654 18.768C72.5014 18.7253 72.4214 18.704 72.3254 18.704H65.9094C65.6001 18.704 65.3548 18.608 65.1734 18.416C64.9921 18.224 64.9014 17.9893 64.9014 17.712C64.9014 17.4453 64.9921 17.216 65.1734 17.024C65.3548 16.832 65.6001 16.736 65.9094 16.736H73.3494C73.9894 16.736 74.4481 16.8907 74.7254 17.2C75.0028 17.4987 75.1414 17.9253 75.1414 18.48V20.112C75.1414 20.656 75.0028 21.0827 74.7254 21.392C74.4481 21.7013 73.9894 21.856 73.3494 21.856H67.7334C67.6161 21.856 67.5308 21.8773 67.4774 21.92C67.4241 21.9627 67.3974 22.0533 67.3974 22.192V22.816C67.3974 22.9333 67.4294 23.0133 67.4934 23.056C67.5574 23.088 67.6374 23.104 67.7334 23.104H74.4694Z" fill="#796BD3"/>
</svg>
