<svg width="110" height="41" viewBox="0 0 110 41" fill="none" xmlns="http://www.w3.org/2000/svg">
<rect width="110" height="41" rx="20.5" fill="#796BD3"/>
<path d="M81.506 20.5L96.747 20.5" stroke="white" stroke-width="2" stroke-linecap="round" stroke-linejoin="round"/>
<path d="M92.1085 15.871L96.747 20.5L92.1085 25.129" stroke="white" stroke-width="2" stroke-linecap="round" stroke-linejoin="round"/>
<path d="M18.6771 20.205C18.6771 20.525 18.7421 20.765 18.8721 20.925C19.0021 21.085 19.2571 21.16 19.6371 21.15C20.2071 21.11 20.7771 21.06 21.3471 21C21.9171 20.94 22.5021 20.85 23.1021 20.73C23.1821 20.72 23.2771 20.71 23.3871 20.7C23.5071 20.68 23.6221 20.685 23.7321 20.715C23.8521 20.745 23.9621 20.81 24.0621 20.91C24.1621 21.01 24.2371 21.165 24.2871 21.375C24.3271 21.585 24.3221 21.76 24.2721 21.9C24.2221 22.04 24.1521 22.155 24.0621 22.245C23.9721 22.325 23.8721 22.39 23.7621 22.44C23.6521 22.48 23.5571 22.505 23.4771 22.515C22.5771 22.705 21.7071 22.84 20.8671 22.92C20.0271 23 19.2471 23.05 18.5271 23.07C18.1471 23.09 17.8171 23.045 17.5371 22.935C17.2671 22.815 17.0421 22.655 16.8621 22.455C16.6821 22.245 16.5471 22 16.4571 21.72C16.3771 21.43 16.3371 21.12 16.3371 20.79V15.525C16.3371 14.985 16.4721 14.575 16.7421 14.295C17.0121 14.005 17.4471 13.86 18.0471 13.86H22.6371C22.9271 13.86 23.1571 13.955 23.3271 14.145C23.5071 14.325 23.5971 14.545 23.5971 14.805C23.5971 15.075 23.5071 15.3 23.3271 15.48C23.1571 15.66 22.9271 15.75 22.6371 15.75H19.2771C19.0671 15.75 18.9121 15.775 18.8121 15.825C18.7221 15.875 18.6771 16.01 18.6771 16.23V20.205ZM27.3021 25.26C27.3021 25.62 27.1821 25.9 26.9421 26.1C26.7121 26.31 26.4421 26.415 26.1321 26.415C25.8121 26.415 25.5371 26.31 25.3071 26.1C25.0871 25.9 24.9771 25.62 24.9771 25.26V13.56C24.9771 13.2 25.0871 12.915 25.3071 12.705C25.5371 12.495 25.8121 12.39 26.1321 12.39C26.4421 12.39 26.7121 12.495 26.9421 12.705C27.1821 12.915 27.3021 13.2 27.3021 13.56V17.43H28.3371C28.6271 17.43 28.8571 17.525 29.0271 17.715C29.1971 17.905 29.2821 18.125 29.2821 18.375C29.2821 18.645 29.1971 18.87 29.0271 19.05C28.8571 19.23 28.6271 19.32 28.3371 19.32H27.3021V25.26ZM30.8186 20.61C30.5186 20.61 30.2786 20.525 30.0986 20.355C29.9286 20.175 29.8436 19.945 29.8436 19.665C29.8436 19.405 29.9286 19.185 30.0986 19.005C30.2786 18.825 30.5186 18.735 30.8186 18.735H42.0086C42.3086 18.735 42.5436 18.825 42.7136 19.005C42.8936 19.185 42.9836 19.405 42.9836 19.665C42.9836 19.945 42.8936 20.175 42.7136 20.355C42.5436 20.525 42.3086 20.61 42.0086 20.61H30.8186ZM41.3186 25.095C41.3186 25.515 41.2086 25.84 40.9886 26.07C40.7786 26.3 40.4336 26.415 39.9536 26.415H32.9336C32.4536 26.415 32.1036 26.3 31.8836 26.07C31.6736 25.84 31.5686 25.515 31.5686 25.095V22.65C31.5686 22.23 31.6736 21.905 31.8836 21.675C32.1036 21.445 32.4536 21.33 32.9336 21.33H39.9536C40.4336 21.33 40.7786 21.445 40.9886 21.675C41.2086 21.905 41.3186 22.23 41.3186 22.65V25.095ZM33.9086 24.015C33.9086 24.225 33.9436 24.365 34.0136 24.435C34.0836 24.515 34.2186 24.555 34.4186 24.555H38.4686C38.6686 24.555 38.8036 24.515 38.8736 24.435C38.9436 24.365 38.9786 24.225 38.9786 24.015V23.745C38.9786 23.535 38.9436 23.395 38.8736 23.325C38.8036 23.245 38.6686 23.205 38.4686 23.205H34.4186C34.2186 23.205 34.0836 23.245 34.0136 23.325C33.9436 23.395 33.9086 23.535 33.9086 23.745V24.015ZM41.5286 15.33C41.5286 16.17 41.1036 16.845 40.2536 17.355C39.4136 17.855 38.1436 18.105 36.4436 18.105C34.7536 18.105 33.4786 17.855 32.6186 17.355C31.7686 16.845 31.3436 16.17 31.3436 15.33C31.3436 14.49 31.7686 13.82 32.6186 13.32C33.4786 12.81 34.7536 12.555 36.4436 12.555C38.1436 12.555 39.4136 12.81 40.2536 13.32C41.1036 13.82 41.5286 14.49 41.5286 15.33ZM36.4436 14.385C35.4736 14.385 34.7686 14.46 34.3286 14.61C33.8986 14.76 33.6836 15 33.6836 15.33C33.6836 15.65 33.8986 15.89 34.3286 16.05C34.7686 16.2 35.4736 16.275 36.4436 16.275C37.4036 16.275 38.0986 16.2 38.5286 16.05C38.9686 15.89 39.1886 15.65 39.1886 15.33C39.1886 15 38.9686 14.76 38.5286 14.61C38.0986 14.46 37.4036 14.385 36.4436 14.385ZM44.925 24.84C44.625 24.84 44.385 24.75 44.205 24.57C44.035 24.4 43.95 24.175 43.95 23.895C43.95 23.635 44.035 23.415 44.205 23.235C44.385 23.055 44.625 22.965 44.925 22.965H56.115C56.415 22.965 56.65 23.055 56.82 23.235C57 23.415 57.09 23.635 57.09 23.895C57.09 24.175 57 24.4 56.82 24.57C56.65 24.75 56.415 24.84 56.115 24.84H44.925ZM55.635 16.92C55.635 17.43 55.525 17.91 55.305 18.36C55.095 18.81 54.775 19.205 54.345 19.545C53.925 19.875 53.395 20.14 52.755 20.34C52.125 20.53 51.39 20.625 50.55 20.625C49.72 20.625 48.985 20.53 48.345 20.34C47.715 20.14 47.185 19.875 46.755 19.545C46.325 19.205 46 18.81 45.78 18.36C45.56 17.91 45.45 17.43 45.45 16.92C45.45 16.41 45.56 15.93 45.78 15.48C46 15.03 46.325 14.64 46.755 14.31C47.185 13.97 47.715 13.705 48.345 13.515C48.985 13.315 49.72 13.215 50.55 13.215C51.39 13.215 52.125 13.315 52.755 13.515C53.395 13.705 53.925 13.97 54.345 14.31C54.775 14.64 55.095 15.03 55.305 15.48C55.525 15.93 55.635 16.41 55.635 16.92ZM50.55 15.045C49.61 15.045 48.915 15.215 48.465 15.555C48.015 15.885 47.79 16.34 47.79 16.92C47.79 17.5 48.015 17.96 48.465 18.3C48.915 18.63 49.61 18.795 50.55 18.795C51.49 18.795 52.18 18.63 52.62 18.3C53.07 17.96 53.295 17.5 53.295 16.92C53.295 16.34 53.07 15.885 52.62 15.555C52.18 15.215 51.49 15.045 50.55 15.045ZM68.8264 19.41C69.1164 19.41 69.3464 19.5 69.5164 19.68C69.6964 19.86 69.7864 20.08 69.7864 20.34C69.7864 20.59 69.6964 20.805 69.5164 20.985C69.3464 21.165 69.1164 21.255 68.8264 21.255H65.8264V22.965H70.2214C70.5214 22.965 70.7564 23.055 70.9264 23.235C71.1064 23.415 71.1964 23.635 71.1964 23.895C71.1964 24.175 71.1064 24.4 70.9264 24.57C70.7564 24.75 70.5214 24.84 70.2214 24.84H59.0314C58.7314 24.84 58.4914 24.75 58.3114 24.57C58.1414 24.4 58.0564 24.175 58.0564 23.895C58.0564 23.635 58.1414 23.415 58.3114 23.235C58.4914 23.055 58.7314 22.965 59.0314 22.965H63.4864V21.255H61.5364C60.9364 21.255 60.5064 21.115 60.2464 20.835C59.9864 20.545 59.8564 20.14 59.8564 19.62V18.03C59.8564 17.52 59.9864 17.12 60.2464 16.83C60.5064 16.54 60.9364 16.395 61.5364 16.395H66.8164C66.9264 16.395 67.0064 16.375 67.0564 16.335C67.1064 16.295 67.1314 16.21 67.1314 16.08V15.555C67.1314 15.445 67.1014 15.375 67.0414 15.345C66.9814 15.305 66.9064 15.285 66.8164 15.285H60.8014C60.5114 15.285 60.2814 15.195 60.1114 15.015C59.9414 14.835 59.8564 14.615 59.8564 14.355C59.8564 14.105 59.9414 13.89 60.1114 13.71C60.2814 13.53 60.5114 13.44 60.8014 13.44H67.7764C68.3764 13.44 68.8064 13.585 69.0664 13.875C69.3264 14.155 69.4564 14.555 69.4564 15.075V16.605C69.4564 17.115 69.3264 17.515 69.0664 17.805C68.8064 18.095 68.3764 18.24 67.7764 18.24H62.5114C62.4014 18.24 62.3214 18.26 62.2714 18.3C62.2214 18.34 62.1964 18.425 62.1964 18.555V19.14C62.1964 19.25 62.2264 19.325 62.2864 19.365C62.3464 19.395 62.4214 19.41 62.5114 19.41H68.8264Z" fill="white"/>
</svg>
