<svg width="62" height="62" viewBox="0 0 62 62" fill="none" xmlns="http://www.w3.org/2000/svg">
<circle cx="31" cy="31" r="31" fill="#796BD3"/>
<path d="M19.3334 21.5H26.3334C27.5711 21.5 28.758 21.9917 29.6332 22.8668C30.5084 23.742 31 24.929 31 26.1667V42.5C31 41.5717 30.6313 40.6815 29.9749 40.0251C29.3185 39.3687 28.4283 39 27.5 39H19.3334V21.5Z" stroke="#FFE588" stroke-width="2" stroke-linecap="round" stroke-linejoin="round"/>
<path d="M42.6667 21.5H35.6667C34.429 21.5 33.242 21.9917 32.3668 22.8668C31.4917 23.742 31 24.929 31 26.1667V42.5C31 41.5717 31.3687 40.6815 32.0251 40.0251C32.6815 39.3687 33.5717 39 34.5 39H42.6667V21.5Z" stroke="#FFE588" stroke-width="2" stroke-linecap="round" stroke-linejoin="round"/>
</svg>
