<svg width="120" height="49" viewBox="0 0 120 49" fill="none" xmlns="http://www.w3.org/2000/svg">
<rect width="120" height="49" rx="24.5" fill="#796BD3"/>
<path d="M87.9157 23.7683L104.542 23.7683" stroke="white" stroke-width="2" stroke-linecap="round" stroke-linejoin="round"/>
<path d="M99.482 18.6876L104.542 23.7683L99.482 28.8489" stroke="white" stroke-width="2" stroke-linecap="round" stroke-linejoin="round"/>
<path d="M30.9769 26.592C30.9769 27.104 30.8489 27.504 30.5929 27.792C30.3369 28.08 29.9049 28.224 29.2969 28.224H23.3289C23.1476 28.224 23.0569 28.2987 23.0569 28.448V28.512C23.0569 28.6613 23.1476 28.736 23.3289 28.736H30.3529C30.6409 28.736 30.8703 28.8213 31.0409 28.992C31.2116 29.1733 31.2969 29.3973 31.2969 29.664C31.2969 29.9093 31.2116 30.1227 31.0409 30.304C30.8703 30.4853 30.6409 30.576 30.3529 30.576H22.2409C21.6329 30.576 21.2009 30.432 20.9449 30.144C20.6889 29.856 20.5609 29.456 20.5609 28.944V28.016C20.5609 27.504 20.6889 27.104 20.9449 26.816C21.2009 26.528 21.6329 26.384 22.2409 26.384H28.2249C28.4063 26.384 28.4969 26.3093 28.4969 26.16V26.048C28.4756 25.9307 28.3849 25.872 28.2249 25.872H21.5049C21.2169 25.872 20.9876 25.7867 20.8169 25.616C20.6463 25.4347 20.5609 25.2107 20.5609 24.944C20.5609 24.6987 20.6463 24.4853 20.8169 24.304C20.9876 24.1227 21.2169 24.032 21.5049 24.032H29.2969C29.9049 24.032 30.3369 24.176 30.5929 24.464C30.8489 24.752 30.9769 25.152 30.9769 25.664V26.592ZM22.7209 19.344C22.8489 19.184 22.9236 19.0453 22.9449 18.928C22.9769 18.8107 22.9663 18.7147 22.9129 18.64C22.8703 18.5653 22.7956 18.512 22.6889 18.48C22.5823 18.4373 22.4596 18.416 22.3209 18.416H19.7929C19.4836 18.416 19.2383 18.3253 19.0569 18.144C18.8756 17.952 18.7849 17.712 18.7849 17.424C18.7849 17.1573 18.8756 16.9227 19.0569 16.72C19.2383 16.5173 19.4836 16.416 19.7929 16.416H23.6489C24.6089 16.416 25.2596 16.6187 25.6009 17.024C25.9423 17.4187 25.9956 17.952 25.7609 18.624C25.3983 19.6907 24.7369 20.6507 23.7769 21.504C22.8276 22.3467 21.5849 23.056 20.0489 23.632C19.9743 23.664 19.8569 23.7013 19.6969 23.744C19.5476 23.776 19.3876 23.7867 19.2169 23.776C19.0463 23.7653 18.8809 23.712 18.7209 23.616C18.5609 23.52 18.4329 23.3493 18.3369 23.104C18.2623 22.912 18.2356 22.7467 18.2569 22.608C18.2889 22.4693 18.3423 22.3467 18.4169 22.24C18.4916 22.1333 18.5769 22.048 18.6729 21.984C18.7796 21.92 18.8756 21.872 18.9609 21.84C19.7929 21.5307 20.5343 21.1573 21.1849 20.72C21.8356 20.2827 22.3476 19.824 22.7209 19.344ZM30.9769 22.192C30.9769 22.576 30.8489 22.88 30.5929 23.104C30.3476 23.3173 30.0596 23.424 29.7289 23.424C29.4089 23.424 29.1316 23.3333 28.8969 23.152C28.6729 22.96 28.5396 22.6933 28.4969 22.352H26.8649C26.5556 22.352 26.3103 22.256 26.1289 22.064C25.9476 21.872 25.8569 21.632 25.8569 21.344C25.8569 21.0773 25.9476 20.8427 26.1289 20.64C26.3103 20.4373 26.5556 20.336 26.8649 20.336H28.4969V19.328H27.3449C27.0356 19.328 26.7903 19.232 26.6089 19.04C26.4276 18.848 26.3369 18.608 26.3369 18.32C26.3369 18.0533 26.4276 17.8187 26.6089 17.616C26.7903 17.4133 27.0356 17.312 27.3449 17.312H28.4969V16.864C28.4969 16.48 28.6143 16.176 28.8489 15.952C29.0943 15.728 29.3876 15.616 29.7289 15.616C30.0596 15.616 30.3476 15.728 30.5929 15.952C30.8489 16.176 30.9769 16.48 30.9769 16.864V22.192ZM45.2238 29.344C45.2238 29.728 45.0958 30.0267 44.8398 30.24C44.5945 30.464 44.3065 30.576 43.9758 30.576C43.6345 30.576 43.3411 30.464 43.0958 30.24C42.8611 30.0267 42.7438 29.728 42.7438 29.344V16.864C42.7438 16.48 42.8611 16.176 43.0958 15.952C43.3411 15.728 43.6345 15.616 43.9758 15.616C44.3065 15.616 44.5945 15.728 44.8398 15.952C45.0958 16.176 45.2238 16.48 45.2238 16.864V21.152H46.3278C46.6371 21.152 46.8825 21.2533 47.0638 21.456C47.2451 21.6587 47.3358 21.8933 47.3358 22.16C47.3358 22.448 47.2451 22.688 47.0638 22.88C46.8825 23.072 46.6371 23.168 46.3278 23.168H45.2238V29.344ZM42.2478 26.176C42.2798 26.4107 42.2638 26.6027 42.1998 26.752C42.1358 26.8907 42.0451 27.0027 41.9278 27.088C41.8211 27.1627 41.7038 27.216 41.5758 27.248C41.4478 27.28 41.3358 27.3013 41.2398 27.312C39.9811 27.4613 38.7331 27.5787 37.4958 27.664C36.2691 27.7493 35.0265 27.8027 33.7678 27.824C33.6931 27.824 33.5918 27.8187 33.4638 27.808C33.3358 27.7973 33.2078 27.7653 33.0798 27.712C32.9518 27.648 32.8345 27.552 32.7278 27.424C32.6211 27.296 32.5518 27.1147 32.5198 26.88C32.4878 26.6773 32.5038 26.512 32.5678 26.384C32.6425 26.2453 32.7331 26.1387 32.8398 26.064C32.9571 25.9787 33.0798 25.9253 33.2078 25.904C33.3465 25.872 33.4638 25.856 33.5598 25.856C33.7838 25.856 34.0078 25.856 34.2318 25.856C34.4558 25.8453 34.6798 25.8347 34.9038 25.824V22.592C34.9038 22.208 35.0265 21.904 35.2718 21.68C35.5171 21.456 35.8105 21.344 36.1518 21.344C36.4825 21.344 36.7705 21.456 37.0158 21.68C37.2718 21.904 37.3998 22.208 37.3998 22.592V25.712C38.5838 25.6267 39.7785 25.5147 40.9838 25.376C41.0798 25.3653 41.1918 25.36 41.3198 25.36C41.4478 25.3493 41.5758 25.3653 41.7038 25.408C41.8318 25.4507 41.9438 25.5307 42.0398 25.648C42.1465 25.7653 42.2158 25.9413 42.2478 26.176ZM41.3038 19.056C41.2505 19.76 41.1865 20.512 41.1118 21.312C41.0371 22.1013 40.9358 22.88 40.8078 23.648C40.7865 23.7653 40.7491 23.8987 40.6958 24.048C40.6531 24.1973 40.5731 24.336 40.4558 24.464C40.3491 24.592 40.2051 24.6933 40.0238 24.768C39.8425 24.832 39.6078 24.8373 39.3198 24.784C39.0318 24.7307 38.8131 24.64 38.6638 24.512C38.5251 24.384 38.4291 24.24 38.3758 24.08C38.3331 23.92 38.3171 23.76 38.3278 23.6C38.3385 23.44 38.3545 23.3013 38.3758 23.184C38.4718 22.5973 38.5465 22.0213 38.5998 21.456C38.6531 20.88 38.7065 20.304 38.7598 19.728C38.7705 19.5147 38.7545 19.3493 38.7118 19.232C38.6798 19.104 38.6265 19.008 38.5518 18.944C38.4878 18.88 38.3971 18.8427 38.2798 18.832C38.1731 18.8107 38.0558 18.8 37.9278 18.8H34.5358C34.2265 18.8 33.9811 18.7093 33.7998 18.528C33.6185 18.3467 33.5278 18.112 33.5278 17.824C33.5278 17.5573 33.6185 17.3227 33.7998 17.12C33.9811 16.9173 34.2265 16.816 34.5358 16.816H38.8878C39.8265 16.816 40.4718 17.0027 40.8238 17.376C41.1865 17.7493 41.3465 18.3093 41.3038 19.056ZM51.6787 24.608C51.0387 24.608 50.5747 24.4587 50.2867 24.16C49.9987 23.8507 49.8547 23.408 49.8547 22.832V17.808C49.8547 17.424 49.9773 17.1253 50.2227 16.912C50.4787 16.688 50.7773 16.576 51.1187 16.576C51.46 16.576 51.748 16.688 51.9827 16.912C52.228 17.1253 52.3507 17.424 52.3507 17.808V18.736H57.5987V17.808C57.5987 17.424 57.716 17.1253 57.9507 16.912C58.196 16.688 58.4893 16.576 58.8307 16.576C59.172 16.576 59.4653 16.688 59.7107 16.912C59.9667 17.1253 60.0947 17.424 60.0947 17.808V22.832C60.0947 23.408 59.9507 23.8507 59.6627 24.16C59.3747 24.4587 58.9107 24.608 58.2707 24.608H56.2227V26.896H60.9107C61.2307 26.896 61.4813 26.992 61.6627 27.184C61.8547 27.376 61.9507 27.6107 61.9507 27.888C61.9507 28.1867 61.8547 28.4267 61.6627 28.608C61.4813 28.8 61.2307 28.896 60.9107 28.896H48.9747C48.6547 28.896 48.3987 28.8 48.2067 28.608C48.0253 28.4267 47.9347 28.1867 47.9347 27.888C47.9347 27.6107 48.0253 27.376 48.2067 27.184C48.3987 26.992 48.6547 26.896 48.9747 26.896H53.7267V24.608H51.6787ZM56.9267 22.624C57.1933 22.624 57.3693 22.5973 57.4547 22.544C57.5507 22.4907 57.5987 22.336 57.5987 22.08V20.704H52.3507V22.08C52.3507 22.336 52.3933 22.4907 52.4787 22.544C52.5747 22.5973 52.756 22.624 53.0227 22.624H56.9267ZM76.1175 29.344C76.1175 29.728 75.9895 30.0267 75.7335 30.24C75.4882 30.464 75.2002 30.576 74.8695 30.576C74.5282 30.576 74.2349 30.464 73.9895 30.24C73.7549 30.0267 73.6375 29.728 73.6375 29.344V16.864C73.6375 16.48 73.7549 16.176 73.9895 15.952C74.2349 15.728 74.5282 15.616 74.8695 15.616C75.2002 15.616 75.4882 15.728 75.7335 15.952C75.9895 16.176 76.1175 16.48 76.1175 16.864V29.344ZM71.2535 19.328C71.0189 21.088 70.4109 22.6347 69.4295 23.968C68.4482 25.3013 67.1309 26.4373 65.4775 27.376C65.4029 27.4293 65.2909 27.488 65.1415 27.552C64.9922 27.616 64.8269 27.6533 64.6455 27.664C64.4749 27.664 64.2989 27.6267 64.1175 27.552C63.9362 27.4667 63.7762 27.3013 63.6375 27.056C63.5202 26.864 63.4669 26.6827 63.4775 26.512C63.4882 26.3413 63.5255 26.192 63.5895 26.064C63.6642 25.936 63.7549 25.8293 63.8615 25.744C63.9682 25.648 64.0589 25.5787 64.1335 25.536C64.6989 25.2053 65.2269 24.8373 65.7175 24.432C66.2082 24.016 66.6455 23.5787 67.0295 23.12C67.4242 22.6507 67.7549 22.16 68.0215 21.648C68.2989 21.1253 68.5015 20.592 68.6295 20.048C68.6829 19.824 68.6935 19.6533 68.6615 19.536C68.6295 19.408 68.5709 19.312 68.4855 19.248C68.4002 19.184 68.2935 19.1467 68.1655 19.136C68.0482 19.1147 67.9202 19.104 67.7815 19.104H65.0935C64.7842 19.104 64.5389 19.0133 64.3575 18.832C64.1762 18.64 64.0855 18.4 64.0855 18.112C64.0855 17.8453 64.1762 17.6107 64.3575 17.408C64.5389 17.2053 64.7842 17.104 65.0935 17.104H68.8375C69.7975 17.104 70.4642 17.2853 70.8375 17.648C71.2215 18 71.3602 18.56 71.2535 19.328Z" fill="white"/>
</svg>
