<svg width="166" height="62" viewBox="0 0 166 62" fill="none" xmlns="http://www.w3.org/2000/svg">
<rect width="166" height="62" rx="28" fill="#FFE588"/>
<path d="M123 31L146 31" stroke="#796BD3" stroke-width="3" stroke-linecap="round" stroke-linejoin="round"/>
<path d="M139 24L146 31L139 38" stroke="#796BD3" stroke-width="3" stroke-linecap="round" stroke-linejoin="round"/>
<path d="M36.7051 26.638C37.1744 27.2687 37.7978 27.7527 38.5751 28.09C39.3671 28.4273 40.2471 28.706 41.2151 28.926C41.3324 28.9553 41.4718 29.0067 41.6331 29.08C41.8091 29.1387 41.9631 29.234 42.0951 29.366C42.2418 29.498 42.3444 29.6667 42.4031 29.872C42.4764 30.0627 42.4691 30.2973 42.3811 30.576C42.2931 30.8987 42.1464 31.1333 41.9411 31.28C41.7358 31.4267 41.5158 31.5147 41.2811 31.544C41.0611 31.5733 40.8411 31.5733 40.6211 31.544C40.4011 31.5147 40.2398 31.4853 40.1371 31.456C38.9491 31.1773 37.8638 30.8033 36.8811 30.334C35.9131 29.85 35.0991 29.212 34.4391 28.42C33.7351 29.212 32.9064 29.85 31.9531 30.334C30.9998 30.8033 29.9218 31.1773 28.7191 31.456C28.6018 31.4853 28.4331 31.5147 28.2131 31.544C28.0078 31.5733 27.7878 31.5733 27.5531 31.544C27.3331 31.5 27.1204 31.4047 26.9151 31.258C26.7098 31.0967 26.5558 30.84 26.4531 30.488C26.3798 30.2533 26.3724 30.048 26.4311 29.872C26.4898 29.6813 26.5851 29.5273 26.7171 29.41C26.8491 29.278 26.9884 29.1753 27.1351 29.102C27.2964 29.0287 27.4358 28.9773 27.5531 28.948C28.5211 28.7427 29.4084 28.464 30.2151 28.112C31.0364 27.7453 31.6891 27.254 32.1731 26.638H28.2571C27.8318 26.638 27.4944 26.5133 27.2451 26.264C26.9958 26 26.8711 25.67 26.8711 25.274C26.8711 24.8927 26.9958 24.5773 27.2451 24.328C27.4944 24.064 27.8318 23.932 28.2571 23.932H40.6211C41.0464 23.932 41.3838 24.064 41.6331 24.328C41.8824 24.5773 42.0071 24.8927 42.0071 25.274C42.0071 25.67 41.8824 26 41.6331 26.264C41.3838 26.5133 41.0464 26.638 40.6211 26.638H36.7051ZM36.1111 38.958C36.1111 39.486 35.9351 39.8967 35.5831 40.19C35.2458 40.498 34.8498 40.652 34.3951 40.652C33.9258 40.652 33.5224 40.498 33.1851 40.19C32.8478 39.8967 32.6791 39.486 32.6791 38.958V35.24H26.2111C25.7711 35.24 25.4191 35.1153 25.1551 34.866C24.9058 34.602 24.7811 34.2647 24.7811 33.854C24.7811 33.4727 24.9058 33.15 25.1551 32.886C25.4191 32.622 25.7711 32.49 26.2111 32.49H42.6231C43.0631 32.49 43.4078 32.622 43.6571 32.886C43.9211 33.15 44.0531 33.4727 44.0531 33.854C44.0531 34.2647 43.9211 34.602 43.6571 34.866C43.4078 35.1153 43.0631 35.24 42.6231 35.24H36.1111V38.958ZM31.7551 23.118C31.3298 23.118 30.9924 22.9933 30.7431 22.744C30.4938 22.48 30.3691 22.15 30.3691 21.754C30.3691 21.3727 30.4938 21.0573 30.7431 20.808C30.9924 20.544 31.3298 20.412 31.7551 20.412H37.1231C37.5484 20.412 37.8858 20.544 38.1351 20.808C38.3844 21.0573 38.5091 21.3727 38.5091 21.754C38.5091 22.15 38.3844 22.48 38.1351 22.744C37.8858 22.9933 37.5484 23.118 37.1231 23.118H31.7551ZM53.6765 26.792C53.8525 27.672 54.2412 28.4053 54.8425 28.992C55.4439 29.5787 56.1625 30.048 56.9985 30.4C57.1012 30.444 57.2185 30.5173 57.3505 30.62C57.4972 30.708 57.6219 30.8253 57.7245 30.972C57.8272 31.104 57.8859 31.2727 57.9005 31.478C57.9299 31.6833 57.8859 31.918 57.7685 32.182C57.6219 32.49 57.4459 32.71 57.2405 32.842C57.0352 32.9593 56.8299 33.0253 56.6245 33.04C56.4192 33.0547 56.2212 33.0327 56.0305 32.974C55.8399 32.9153 55.6932 32.864 55.5905 32.82C54.9305 32.5853 54.2852 32.2333 53.6545 31.764C53.0239 31.28 52.4665 30.686 51.9825 29.982C51.4839 30.73 50.8972 31.3753 50.2225 31.918C49.5625 32.4607 48.8365 32.9153 48.0445 33.282C47.9272 33.326 47.7732 33.3847 47.5825 33.458C47.3919 33.5313 47.1865 33.568 46.9665 33.568C46.7465 33.568 46.5265 33.5167 46.3065 33.414C46.1012 33.3113 45.9252 33.106 45.7785 32.798C45.6612 32.5633 45.6172 32.3507 45.6465 32.16C45.6759 31.9547 45.7345 31.7787 45.8225 31.632C45.9252 31.4707 46.0425 31.3387 46.1745 31.236C46.3212 31.1333 46.4459 31.06 46.5485 31.016C47.5752 30.488 48.3892 29.894 48.9905 29.234C49.6065 28.574 49.9879 27.76 50.1345 26.792H47.4945C47.0692 26.792 46.7245 26.6673 46.4605 26.418C46.2112 26.154 46.0865 25.824 46.0865 25.428C46.0865 25.0467 46.2112 24.7313 46.4605 24.482C46.7245 24.218 47.0692 24.086 47.4945 24.086H56.2725C56.6979 24.086 57.0352 24.218 57.2845 24.482C57.5485 24.7313 57.6805 25.0467 57.6805 25.428C57.6805 25.824 57.5485 26.154 57.2845 26.418C57.0352 26.6673 56.6979 26.792 56.2725 26.792H53.6765ZM63.5325 33.634C63.5325 34.162 63.3565 34.58 63.0045 34.888C62.6672 35.1813 62.2712 35.328 61.8165 35.328C61.3472 35.328 60.9439 35.1813 60.6065 34.888C60.2839 34.58 60.1225 34.162 60.1225 33.634V29.806H58.3185C57.8932 29.806 57.5559 29.674 57.3065 29.41C57.0572 29.146 56.9325 28.816 56.9325 28.42C56.9325 28.0533 57.0572 27.7307 57.3065 27.452C57.5559 27.1733 57.8932 27.034 58.3185 27.034H60.1225V21.688C60.1225 21.16 60.2839 20.742 60.6065 20.434C60.9439 20.126 61.3472 19.972 61.8165 19.972C62.2712 19.972 62.6672 20.126 63.0045 20.434C63.3565 20.742 63.5325 21.16 63.5325 21.688V33.634ZM49.2105 35.394C49.2105 34.866 49.3792 34.4553 49.7165 34.162C50.0685 33.854 50.4792 33.7 50.9485 33.7C51.4179 33.7 51.8139 33.854 52.1365 34.162C52.4739 34.4553 52.6425 34.866 52.6425 35.394V36.494C52.6425 36.89 52.7159 37.1687 52.8625 37.33C53.0092 37.4913 53.2659 37.572 53.6325 37.572H62.5645C62.9899 37.572 63.3272 37.704 63.5765 37.968C63.8405 38.232 63.9725 38.562 63.9725 38.958C63.9725 39.3393 63.8405 39.662 63.5765 39.926C63.3272 40.19 62.9899 40.322 62.5645 40.322H51.7185C50.8385 40.322 50.2005 40.1093 49.8045 39.684C49.4085 39.2733 49.2105 38.672 49.2105 37.88V35.394ZM49.5625 23.206C49.1372 23.206 48.7999 23.0887 48.5505 22.854C48.3012 22.6047 48.1765 22.2893 48.1765 21.908C48.1765 21.5267 48.3012 21.2113 48.5505 20.962C48.7999 20.7127 49.1372 20.588 49.5625 20.588H54.2045C54.6299 20.588 54.9672 20.7127 55.2165 20.962C55.4659 21.2113 55.5905 21.5267 55.5905 21.908C55.5905 22.2893 55.4659 22.6047 55.2165 22.854C54.9672 23.0887 54.6299 23.206 54.2045 23.206H49.5625ZM69.328 31.016C68.448 31.016 67.81 30.8107 67.414 30.4C67.018 29.9747 66.82 29.366 66.82 28.574V22.832C66.82 22.304 66.9887 21.8933 67.326 21.6C67.678 21.292 68.0887 21.138 68.558 21.138C69.0273 21.138 69.4233 21.292 69.746 21.6C70.0687 21.8933 70.23 22.304 70.23 22.832V23.426H73.816V22.766C73.816 22.238 73.9773 21.8273 74.3 21.534C74.6227 21.226 75.0187 21.072 75.488 21.072C75.9573 21.072 76.3607 21.226 76.698 21.534C77.05 21.8273 77.226 22.238 77.226 22.766V28.574C77.226 29.366 77.028 29.9747 76.632 30.4C76.236 30.8107 75.598 31.016 74.718 31.016H69.328ZM71.528 40.542C70.648 40.542 70.01 40.3293 69.614 39.904C69.218 39.4933 69.02 38.892 69.02 38.1V35.042C69.02 34.25 69.218 33.6487 69.614 33.238C70.01 32.8127 70.648 32.6 71.528 32.6H81.824C82.2493 32.6 82.5867 32.732 82.836 32.996C83.1 33.2453 83.232 33.5607 83.232 33.942C83.232 34.338 83.1 34.668 82.836 34.932C82.5867 35.1813 82.2493 35.306 81.824 35.306H73.332C73.024 35.306 72.7967 35.3427 72.65 35.416C72.518 35.4893 72.452 35.6873 72.452 36.01V36.978C72.452 37.374 72.5107 37.616 72.628 37.704C72.76 37.792 72.9947 37.836 73.332 37.836H81.934C82.3593 37.836 82.6967 37.9607 82.946 38.21C83.21 38.474 83.342 38.804 83.342 39.2C83.342 39.5813 83.21 39.8967 82.946 40.146C82.6967 40.41 82.3593 40.542 81.934 40.542H71.528ZM83.122 30.004C83.122 30.532 82.946 30.95 82.594 31.258C82.2567 31.5513 81.8607 31.698 81.406 31.698C80.9367 31.698 80.5333 31.5513 80.196 31.258C79.8733 30.95 79.712 30.532 79.712 30.004V21.688C79.712 21.16 79.8733 20.742 80.196 20.434C80.5333 20.126 80.9367 19.972 81.406 19.972C81.8607 19.972 82.2567 20.126 82.594 20.434C82.946 20.742 83.122 21.16 83.122 21.688V24.526H84.64C85.0653 24.526 85.4027 24.6653 85.652 24.944C85.9013 25.2227 86.026 25.5453 86.026 25.912C86.026 26.308 85.9013 26.638 85.652 26.902C85.4027 27.1513 85.0653 27.276 84.64 27.276H83.122V30.004ZM72.826 28.31C73.1927 28.31 73.4493 28.266 73.596 28.178C73.7427 28.09 73.816 27.848 73.816 27.452V26.176H70.23V27.452C70.23 27.848 70.3033 28.09 70.45 28.178C70.5967 28.266 70.8533 28.31 71.22 28.31H72.826ZM104.911 38.848C104.911 39.376 104.735 39.7867 104.383 40.08C104.046 40.388 103.65 40.542 103.195 40.542C102.726 40.542 102.323 40.388 101.985 40.08C101.663 39.7867 101.501 39.376 101.501 38.848V21.688C101.501 21.16 101.663 20.742 101.985 20.434C102.323 20.126 102.726 19.972 103.195 19.972C103.65 19.972 104.046 20.126 104.383 20.434C104.735 20.742 104.911 21.16 104.911 21.688V38.848ZM98.2235 25.076C97.9008 27.496 97.0648 29.6227 95.7155 31.456C94.3661 33.2893 92.5548 34.8513 90.2815 36.142C90.1788 36.2153 90.0248 36.296 89.8195 36.384C89.6141 36.472 89.3868 36.5233 89.1375 36.538C88.9028 36.538 88.6608 36.4867 88.4115 36.384C88.1621 36.2667 87.9421 36.0393 87.7515 35.702C87.5901 35.438 87.5168 35.1887 87.5315 34.954C87.5461 34.7193 87.5975 34.514 87.6855 34.338C87.7881 34.162 87.9128 34.0153 88.0595 33.898C88.2061 33.766 88.3308 33.6707 88.4335 33.612C89.2108 33.1573 89.9368 32.6513 90.6115 32.094C91.2861 31.522 91.8875 30.9207 92.4155 30.29C92.9581 29.6447 93.4128 28.97 93.7795 28.266C94.1608 27.5473 94.4395 26.814 94.6155 26.066C94.6888 25.758 94.7035 25.5233 94.6595 25.362C94.6155 25.186 94.5348 25.054 94.4175 24.966C94.3001 24.878 94.1535 24.8267 93.9775 24.812C93.8161 24.7827 93.6401 24.768 93.4495 24.768H89.7535C89.3281 24.768 88.9908 24.6433 88.7415 24.394C88.4921 24.13 88.3675 23.8 88.3675 23.404C88.3675 23.0373 88.4921 22.7147 88.7415 22.436C88.9908 22.1573 89.3281 22.018 89.7535 22.018H94.9015C96.2215 22.018 97.1381 22.2673 97.6515 22.766C98.1795 23.25 98.3701 24.02 98.2235 25.076Z" fill="#796BD3"/>
</svg>
